<?xml version="1.0" standalone="no"?>
<!DOCTYPE svg PUBLIC "-//W3C//DTD SVG 20010904//EN"
 "http://www.w3.org/TR/2001/REC-SVG-20010904/DTD/svg10.dtd">
<svg version="1.0" xmlns="http://www.w3.org/2000/svg"
 width="1438.000000pt" height="1513.000000pt" viewBox="0 0 1438.000000 1513.000000"
 preserveAspectRatio="xMidYMid meet">
<metadata>
Created by potrace 1.16, written by Peter Selinger 2001-2019
</metadata>
<g transform="translate(0.000000,1513.000000) scale(0.100000,-0.100000)"
fill="#000000" stroke="none">
<path d="M0 7570 l0 -7560 7190 0 7190 0 0 7560 0 7560 -7190 0 -7190 0 0
-7560z m8275 4619 c1032 -88 2003 -669 2591 -1549 661 -990 775 -2247 304
-3345 -330 -770 -956 -1421 -1714 -1781 -358 -170 -757 -282 -1146 -323 -540
-57 -1104 25 -1637 239 -96 38 -185 70 -197 70 -12 0 -37 -8 -56 -18 -19 -10
-215 -159 -435 -332 -220 -173 -419 -325 -443 -338 -61 -35 -153 -29 -214 14
-77 53 -107 153 -77 254 33 110 -63 214 -168 182 -25 -8 -291 -211 -756 -576
-395 -310 -732 -569 -749 -575 -45 -16 -124 -13 -161 5 -115 58 -158 192 -94
296 12 20 162 180 332 357 193 200 315 334 324 355 25 64 -6 138 -72 172 -24
13 -43 15 -86 9 -139 -20 -209 2 -266 83 -26 38 -30 52 -30 110 0 48 6 77 20
104 11 20 306 332 655 692 349 361 641 668 649 683 25 49 16 92 -44 222 -394
853 -437 1811 -120 2686 431 1188 1474 2060 2717 2270 304 51 557 61 873 34z
m-4071 -5099 c38 -14 68 -67 62 -110 -12 -78 -112 -118 -171 -67 -92 80 -5
221 109 177z m3612 -2272 c-3 -13 -20 -85 -38 -160 l-32 -138 -202 0 -202 0
-6 -27 c-3 -16 -20 -109 -36 -208 -17 -99 -34 -190 -37 -202 l-5 -23 186 0
187 0 -5 -32 c-3 -18 -13 -82 -22 -141 l-17 -109 -186 7 -186 7 -59 -378 c-32
-209 -59 -380 -61 -382 -1 -1 -82 -18 -179 -37 -97 -20 -203 -42 -236 -49 -33
-8 -60 -13 -60 -11 0 1 13 58 29 126 85 357 240 1237 297 1677 4 28 12 52 18
53 6 0 198 11 426 23 228 13 419 24 424 25 4 0 6 -9 2 -21z m660 -5 c-8 -31
-153 -668 -201 -888 -49 -222 -115 -572 -115 -606 0 -20 5 -20 133 -17 l132 3
3 -35 c2 -39 20 -178 28 -225 5 -30 5 -31 -35 -27 -116 11 -544 -36 -669 -73
-25 -8 -47 -13 -49 -11 -6 6 48 363 97 646 73 412 224 1189 233 1196 5 4 376
52 410 53 32 1 38 -2 33 -16z m-1898 -460 c-49 -247 -127 -653 -174 -903 -47
-250 -90 -458 -96 -461 -5 -3 -51 -9 -101 -13 -50 -4 -138 -14 -195 -22 -58
-8 -107 -12 -109 -10 -3 3 13 80 35 173 79 327 203 934 293 1438 17 99 33 182
35 184 6 6 323 58 365 60 l35 1 -88 -447z m-1448 331 c114 -57 133 -207 39
-294 -87 -79 -227 -52 -278 53 -76 157 86 319 239 241z m-2057 -745 c31 -14
57 -59 57 -99 0 -23 -10 -42 -34 -66 -72 -72 -176 -23 -176 82 0 72 81 116
153 83z"/>
<path d="M7730 11983 c-450 -35 -929 -178 -1322 -393 -1319 -725 -1983 -2226
-1628 -3685 73 -301 202 -624 348 -872 l30 -51 -366 -379 c-514 -533 -502
-519 -502 -537 0 -22 36 -56 58 -56 11 0 230 166 488 370 l469 369 25 -32 c14
-17 72 -87 128 -156 l104 -124 -119 -121 c-66 -67 -371 -382 -678 -701 -307
-319 -592 -614 -633 -656 -56 -58 -74 -84 -74 -105 0 -29 24 -54 53 -54 10 0
407 306 883 680 l865 680 98 -77 c54 -42 149 -110 211 -151 l113 -74 -140
-143 c-153 -155 -166 -178 -116 -211 36 -23 46 -17 240 137 l166 131 132 -62
c411 -196 814 -298 1268 -319 1213 -58 2357 551 2984 1589 452 748 589 1649
379 2502 -110 451 -314 869 -608 1248 -102 131 -348 385 -479 493 -513 424
-1125 683 -1779 752 -134 14 -467 18 -598 8z m545 -468 c326 -38 617 -121 910
-260 61 -28 120 -60 132 -71 12 -11 30 -49 42 -89 79 -279 106 -364 121 -395
40 -77 33 -74 722 -372 l116 -50 75 -127 c130 -218 212 -403 281 -632 41 -137
90 -363 84 -387 -3 -10 -63 -98 -133 -196 -172 -238 -170 -190 -30 -626 l107
-334 -17 -66 c-10 -36 -40 -125 -67 -199 -204 -551 -580 -1029 -1068 -1361
l-104 -70 -19 40 c-11 22 -36 53 -56 68 -20 16 -232 156 -471 313 l-435 284
-72 0 -72 0 -490 -329 -491 -329 -62 13 c-53 10 -149 42 -232 75 -17 8 -17 7
-1 -26 35 -68 100 -154 171 -228 63 -67 75 -85 94 -149 12 -40 20 -75 18 -77
-2 -3 -56 9 -118 26 -347 93 -703 272 -1010 509 -119 92 -374 346 -464 463
-38 48 -66 90 -63 93 3 3 87 12 188 19 l182 14 86 -65 c83 -62 236 -145 294
-160 l28 -6 -40 62 c-48 74 -98 199 -116 290 -9 46 -15 219 -18 585 -6 575 -6
576 -71 632 -17 16 -205 151 -418 302 l-387 274 -7 46 c-4 25 -2 95 4 155 7
60 10 111 8 113 -6 6 -104 -97 -147 -153 -22 -28 -60 -87 -84 -130 -25 -43
-45 -73 -45 -67 0 7 7 65 15 130 55 420 212 837 449 1192 113 170 190 264 330
409 l109 112 191 1 c105 0 308 4 451 8 240 6 263 8 301 28 23 12 55 35 70 51
16 16 112 162 213 324 l185 296 130 16 c72 9 145 18 161 20 89 10 424 4 540
-9z m-1016 -102 c-40 -67 -206 -316 -253 -381 -52 -69 -111 -117 -165 -132
-49 -14 -423 -24 -491 -13 l-55 9 125 22 c69 12 185 29 258 37 73 9 148 23
168 32 22 11 66 56 122 127 134 170 282 336 298 336 13 0 11 -7 -7 -37z
m-1544 -2875 c39 -23 125 -77 192 -121 168 -110 177 -128 202 -422 6 -66 13
-163 15 -215 l5 -95 -19 58 c-17 50 -51 208 -91 422 -6 33 -18 73 -27 88 -10
16 -93 83 -187 150 -158 112 -345 255 -345 264 0 5 175 -83 255 -129z m2820
-1769 c54 -26 249 -160 336 -231 l34 -28 -40 16 c-39 16 -235 115 -345 174
-86 46 -107 43 -301 -55 -160 -81 -350 -168 -355 -162 -1 1 46 35 104 76 145
100 366 232 405 241 47 11 94 2 162 -31z"/>
<path d="M7200 10453 c0 -7 9 -60 20 -118 25 -125 76 -278 131 -387 l40 -79
-20 -67 c-31 -106 -238 -820 -257 -886 -12 -43 -29 -73 -63 -109 -63 -68 -177
-158 -259 -204 l-67 -38 75 -3 c89 -4 215 12 322 39 42 10 82 19 90 19 21 0
281 -145 406 -226 222 -145 482 -358 482 -395 0 -75 94 -358 164 -494 l41 -80
6 190 c6 184 18 268 54 390 15 50 17 52 407 354 l391 304 131 -2 c143 -2 244
13 380 56 l81 26 -100 22 c-110 26 -198 60 -297 118 l-65 38 -187 515 c-180
494 -187 516 -172 539 9 14 79 110 156 215 77 105 140 193 140 195 0 3 -123
-56 -272 -131 l-273 -137 -553 -19 -554 -19 -41 28 c-69 48 -202 180 -263 261
-75 99 -74 98 -74 85z m1411 -514 c60 -13 120 -61 150 -122 45 -88 162 -413
212 -588 52 -180 68 -254 52 -238 -47 50 -241 411 -373 695 -33 71 -48 94 -70
102 -15 6 -151 13 -317 16 -303 5 -550 24 -533 41 9 9 364 65 504 79 262 27
310 29 375 15z"/>
</g>
</svg>
